<?xml version="1.0" encoding="UTF-8"?>
<svg width="85px" height="75px" viewBox="0 0 85 75" version="1.1" xmlns="http://www.w3.org/2000/svg" xmlns:xlink="http://www.w3.org/1999/xlink">
    <!-- Generator: Sketch 51.3 (57544) - http://www.bohemiancoding.com/sketch -->
    <title>Group 4</title>
    <desc>Created with Sketch.</desc>
    <defs></defs>
    <g id="sourse" stroke="none" stroke-width="1" fill="none" fill-rule="evenodd">
        <g id="Group-15" transform="translate(-1164.000000, -489.000000)">
            <g id="Group-8-Copy-2" transform="translate(1080.000000, 489.000000)">
                <g id="Group-4" transform="translate(84.000000, 0.000000)">
                    <g id="748151" fill="#BEC8D1" fill-rule="nonzero">
                        <circle id="Oval" cx="40" cy="61" r="5"></circle>
                        <path d="M79.1610808,16.8252241 C68.8907842,5.97553611 54.9834619,0.000153846093 39.9994225,0 C25.0166332,0.000153846093 11.1093109,5.97553611 0.838857985,16.8252241 C-0.337702699,18.0683006 -0.268171557,20.0153767 0.994326495,21.1739917 C2.2569808,22.3324527 4.23432149,22.2641451 5.41103843,21.0209148 C14.4860244,11.4338416 26.7697555,6.15399758 40.0005163,6.15384373 C53.2301834,6.15399758 65.5139144,11.4338416 74.5889004,21.0209148 C75.2043682,21.6710684 76.0388982,21.9999913 76.8756156,21.9999913 C77.6385832,21.9999913 78.4034258,21.726453 79.0056123,21.1739917 C80.2681104,20.0152229 80.3377978,18.0683006 79.1610808,16.8252241 Z" id="Shape"></path>
                        <path d="M67.096,29.7316971 C59.5291859,22.1660808 49.7287858,17.9996909 39.4999521,18 C29.2687822,18.0001545 19.4682264,22.166699 11.9037484,29.7320062 C10.6921113,30.9437969 10.6997424,32.9008055 11.9208795,34.1031688 C13.1420166,35.3055322 15.1141196,35.2979594 16.3257567,34.0861688 C22.7117696,27.6994249 30.9418693,24.1819712 39.4999521,24.1818167 C48.0558545,24.1815076 56.2859542,27.6991158 62.6743031,34.0864779 C63.2832365,34.6952323 64.0840383,34.9999959 64.8851516,34.9999959 C65.6781665,34.9999959 66.4718044,34.701105 67.0794918,34.1028597 C68.3003174,32.9003418 68.3077928,30.9433332 67.096,29.7316971 Z" id="Shape"></path>
                        <path d="M56.0601362,43.5986967 C51.9319469,39.528353 46.0146112,37 40.6168689,37 C40.6162342,37 40.6151237,37 40.614489,37 L40.3858679,37 C40.384916,37 40.3844401,37 40.3834881,37 C34.9855871,37 29.0677754,39.5285109 24.9397448,43.5986967 C23.6949418,44.8261629 23.6855812,46.8255718 24.9189611,48.0645643 C25.5394587,48.687771 26.3562119,48.999927 27.1731238,48.999927 C27.980199,48.999927 28.7875916,48.6953499 29.4061854,48.0854063 C32.3449421,45.1877397 36.6535216,43.3157511 40.3838054,43.3157511 C40.3842814,43.3157511 40.384916,43.3157511 40.385392,43.3157511 L40.614965,43.3157511 C40.6155996,43.3157511 40.6157583,43.3157511 40.6163929,43.3157511 C44.3462008,43.3157511 48.6550975,45.1878976 51.5935369,48.0854063 C52.8383399,49.3127146 54.8476988,49.3038726 56.08092,48.0645643 C57.3144585,46.8257297 57.3050978,44.8261629 56.0601362,43.5986967 Z" id="Shape"></path>
                    </g>
                    <g id="Group-11" transform="translate(55.000000, 45.000000)">
                        <circle id="Oval-4" fill="#FFFFFF" fill-rule="nonzero" cx="15" cy="15" r="15"></circle>
                        <path d="M15,0 C19.2723218,0.0938971831 22.8168873,1.54928169 25.6338028,4.36619718 C28.4507183,7.18311268 29.9061028,10.7276782 30,15 C29.9061028,19.2723218 28.4507183,22.8168873 25.6338028,25.6338028 C22.8168873,28.4507183 19.2723218,29.9061028 15,30 C10.7276782,29.9061028 7.18311268,28.4507183 4.36619718,25.6338028 C1.54928169,22.8168873 0.0938971831,19.2723218 0,15 C0.0938971831,10.7276782 1.54928169,7.18311268 4.36619718,4.36619718 C7.18311268,1.54928169 10.7276782,0.0938971831 15,0 Z M20.4225352,7.46478873 L15,12.8873239 L9.57746479,7.46478873 L7.46478873,9.57746479 L12.8873239,15 L7.46478873,20.4225352 L9.57746479,22.5352113 L15,17.1126761 L20.4225352,22.5352113 L22.5352113,20.4225352 L17.1126761,15 L22.5352113,9.57746479 L20.4225352,7.46478873 Z" id="close-circle---Material-Design-Icons" fill="#EA5455"></path>
                    </g>
                </g>
            </g>
        </g>
    </g>
</svg>