<?xml version="1.0" encoding="UTF-8"?>
<svg width="85px" height="75px" viewBox="0 0 85 75" version="1.1" xmlns="http://www.w3.org/2000/svg" xmlns:xlink="http://www.w3.org/1999/xlink">
    <!-- Generator: Sketch 51.3 (57544) - http://www.bohemiancoding.com/sketch -->
    <title>Group 7</title>
    <desc>Created with Sketch.</desc>
    <defs></defs>
    <g id="sourse" stroke="none" stroke-width="1" fill="none" fill-rule="evenodd">
        <g id="Group-14" transform="translate(-657.000000, -249.000000)">
            <g id="Group-8" transform="translate(495.000000, 249.000000)">
                <g id="Group-7" transform="translate(162.000000, 0.000000)">
                    <g id="inbox-(1)" stroke="#BEC8D1" stroke-width="5">
                        <polyline id="Shape" stroke-linecap="round" stroke-linejoin="round" points="72.8767123 33.9491525 53.0958904 33.9491525 45.4611872 46.0677966 30.5388128 46.0677966 22.9041096 33.9491525 4.16438356 33.9491525"></polyline>
                        <path d="M15.468248,5.42996451 L2.5,34.4818022 L2.5,54.1864407 C2.5,57.3172722 4.81441156,59.7655367 7.6347032,59.7655367 L68.3652968,59.7655367 C71.1855884,59.7655367 73.5,57.3172722 73.5,54.1864407 L73.5,34.4818016 L60.5332807,5.43335567 C59.7336393,3.65775769 57.9933366,2.50104295 56.2191781,2.5 L19.7822909,2.49999957 C18.0077941,2.50104228 16.268577,3.65628505 15.468248,5.42996451 Z" id="Shape"></path>
                    </g>
                    <g id="Group-9" transform="translate(55.000000, 45.000000)">
                        <circle id="Oval-3" fill="#FFFFFF" fill-rule="nonzero" cx="15" cy="15" r="15"></circle>
                        <path d="M22.5360577,16.4783654 L22.5360577,13.5216346 L16.4783654,13.5216346 L16.4783654,7.46394231 L13.5216346,7.46394231 L13.5216346,13.5216346 L7.46394231,13.5216346 L7.46394231,16.4783654 L13.5216346,16.4783654 L13.5216346,22.5360577 L16.4783654,22.5360577 L16.4783654,16.4783654 L22.5360577,16.4783654 Z M15,0 C17.7403983,-2.04964251e-13 20.2764306,0.685089303 22.6081731,2.05528846 C24.8677998,3.35337188 26.6466281,5.13220024 27.9447115,7.39182692 C29.3149107,9.72356935 30,12.2596017 30,15 C30,17.7403983 29.3149107,20.2764306 27.9447115,22.6081731 C26.6466281,24.8677998 24.8677998,26.6466281 22.6081731,27.9447115 C20.2764306,29.3149107 17.7403983,30 15,30 C12.2596017,30 9.72356935,29.3149107 7.39182692,27.9447115 C5.13220024,26.6225895 3.35337187,24.8317421 2.05528846,22.5721154 C0.685089303,20.240373 0,17.7163597 0,15 C0,12.2836403 0.685089303,9.75962704 2.05528846,7.42788462 C3.37741046,5.16825793 5.16825793,3.37741046 7.42788462,2.05528846 C9.75962704,0.685089303 12.2836403,-2.04964251e-13 15,0 Z" id="add_circle---material" fill="#27C76F"></path>
                    </g>
                </g>
            </g>
        </g>
    </g>
</svg>