<?xml version="1.0" encoding="UTF-8"?>
<svg width="85px" height="75px" viewBox="0 0 85 75" version="1.1" xmlns="http://www.w3.org/2000/svg" xmlns:xlink="http://www.w3.org/1999/xlink">
    <!-- Generator: Sketch 51.3 (57544) - http://www.bohemiancoding.com/sketch -->
    <title>Group 7</title>
    <desc>Created with Sketch.</desc>
    <defs></defs>
    <g id="sourse" stroke="none" stroke-width="1" fill="none" fill-rule="evenodd">
        <g id="Group-15" transform="translate(-1163.000000, -251.000000)">
            <g id="Group-8-Copy" transform="translate(1080.000000, 251.000000)">
                <g id="Group-7" transform="translate(83.000000, 0.000000)">
                    <g id="inbox-(1)" stroke="#BEC8D1" stroke-width="5">
                        <polyline id="Shape" stroke-linecap="round" stroke-linejoin="round" points="72.8767123 33.9491525 53.0958904 33.9491525 45.4611872 46.0677966 30.5388128 46.0677966 22.9041096 33.9491525 4.16438356 33.9491525"></polyline>
                        <path d="M15.468248,5.42996451 L2.5,34.4818022 L2.5,54.1864407 C2.5,57.3172722 4.81441156,59.7655367 7.6347032,59.7655367 L68.3652968,59.7655367 C71.1855884,59.7655367 73.5,57.3172722 73.5,54.1864407 L73.5,34.4818016 L60.5332807,5.43335567 C59.7336393,3.65775769 57.9933366,2.50104295 56.2191781,2.5 L19.7822909,2.49999957 C18.0077941,2.50104228 16.268577,3.65628505 15.468248,5.42996451 Z" id="Shape"></path>
                    </g>
                    <g id="Group-10" transform="translate(55.000000, 45.000000)">
                        <circle id="Oval-3" fill="#FFFFFF" fill-rule="nonzero" cx="15" cy="15" r="15"></circle>
                        <path d="M19.5793269,13.8822115 C20.0120214,13.4254785 20.354566,12.9086567 20.6069712,12.3317308 C20.8593763,11.7548048 20.9855769,11.1418302 20.9855769,10.4927885 C20.9855769,9.41105228 20.7151469,8.41346611 20.1742788,7.5 C19.6334108,6.58653389 18.9062546,5.8593777 17.9927885,5.31850962 C17.0793224,4.77764153 16.0817362,4.50721154 15,4.50721154 C13.9182638,4.50721154 12.9206776,4.77764153 12.0072115,5.31850962 C11.0937454,5.8593777 10.3665892,6.58653389 9.82572115,7.5 C9.28485306,8.41346611 9.01442308,9.41105228 9.01442308,10.4927885 L11.9711538,10.4927885 C11.9711538,9.67547668 12.2716316,8.96634916 12.8725962,8.36538462 C13.4735607,7.76442007 14.1826882,7.46394231 15,7.46394231 C15.8173118,7.46394231 16.5264393,7.76442007 17.1274038,8.36538462 C17.7283684,8.96634916 18.0288462,9.66345757 18.0288462,10.4567308 C18.0288462,11.250004 17.7283684,11.9711506 17.1274038,12.6201923 L15.2884615,14.4951923 C14.7355742,15.0961569 14.3149053,15.7451888 14.0264423,16.4423077 C13.6899022,17.1875037 13.5216346,17.9447077 13.5216346,18.7139423 L13.5216346,19.5072115 L16.4783654,19.5072115 C16.4783654,18.4735525 16.6466329,17.6201957 16.9831731,16.9471154 C17.1995203,16.5144209 17.6201892,15.9615418 18.2451923,15.2884615 L19.5793269,13.8822115 Z M16.4783654,25.4927885 L16.4783654,22.5360577 L13.5216346,22.5360577 L13.5216346,25.4927885 L16.4783654,25.4927885 Z M15,0 C17.7403983,0 20.2764306,0.685089303 22.6081731,2.05528846 C24.8677998,3.35337187 26.6466281,5.13220024 27.9447115,7.39182692 C29.3149107,9.72356935 30,12.2596017 30,15 C30,17.7403983 29.3149107,20.2764306 27.9447115,22.6081731 C26.6466281,24.8677998 24.8677998,26.6466281 22.6081731,27.9447115 C20.2764306,29.3149107 17.7403983,30 15,30 C12.2596017,30 9.72356935,29.3149107 7.39182692,27.9447115 C5.13220024,26.6225895 3.35337188,24.8317421 2.05528846,22.5721154 C0.685089303,20.240373 0,17.7163597 0,15 C0,12.2836403 0.685089303,9.75962704 2.05528846,7.42788462 C3.37741046,5.16825793 5.16825793,3.37741046 7.42788462,2.05528846 C9.75962704,0.685089303 12.2836403,0 15,0 Z" id="help---material" fill="#BEC8D1"></path>
                    </g>
                </g>
            </g>
        </g>
    </g>
</svg>